<svg xmlns="http://www.w3.org/2000/svg" width="600" height="160" viewBox="0 0 600 160">
  <defs>
    <linearGradient id="bg-mll" x1="0" y1="0" x2="1" y2="1">
      <stop offset="0%" stop-color="#fff8c5"/>
      <stop offset="100%" stop-color="#ffffff"/>
    </linearGradient>
  </defs>
  <rect width="600" height="160" fill="url(#bg-mll)"/>
  <!-- Deep layers -->
  <g opacity="0.7">
    <rect x="120" y="35" width="20" height="90" rx="3" fill="none" stroke="#9a6700" stroke-width="1.5"/>
    <rect x="180" y="25" width="20" height="110" rx="3" fill="none" stroke="#9a6700" stroke-width="1.5"/>
    <rect x="240" y="20" width="20" height="120" rx="3" fill="none" stroke="#9a6700" stroke-width="1.5"/>
    <rect x="300" y="20" width="20" height="120" rx="3" fill="none" stroke="#9a6700" stroke-width="1.5"/>
    <rect x="360" y="25" width="20" height="110" rx="3" fill="none" stroke="#9a6700" stroke-width="1.5"/>
    <rect x="420" y="35" width="20" height="90" rx="3" fill="none" stroke="#9a6700" stroke-width="1.5"/>
    <rect x="480" y="60" width="20" height="40" rx="3" fill="none" stroke="#b08800" stroke-width="2"/>
  </g>
  <!-- Nodes inside -->
  <circle cx="130" cy="55" r="4" fill="#9a6700" opacity="0.5"/>
  <circle cx="130" cy="80" r="4" fill="#9a6700" opacity="0.5"/>
  <circle cx="130" cy="105" r="4" fill="#9a6700" opacity="0.5"/>
  <circle cx="190" cy="45" r="4" fill="#9a6700" opacity="0.5"/>
  <circle cx="190" cy="80" r="4" fill="#9a6700" opacity="0.5"/>
  <circle cx="190" cy="115" r="4" fill="#9a6700" opacity="0.5"/>
  <circle cx="490" cy="80" r="4" fill="#9a6700" opacity="0.5"/>
</svg>
